<?xml version="1.0" encoding="UTF-8"?>
<!-- Generated by Pixelmator Pro 2.4.7 -->
<svg width="500" height="500" viewBox="0 0 500 500" xmlns="http://www.w3.org/2000/svg" xmlns:xlink="http://www.w3.org/1999/xlink">
    <path id="path1" fill="#dfdfdf" fill-rule="evenodd" stroke="none" d="M 76.203369 40.836487 C 76.203369 21.416199 60.460117 5.672943 41.039841 5.672943 C 21.61956 5.672943 5.876314 21.416199 5.876314 40.836487 C 5.876314 60.256744 21.61956 76 41.039841 76 C 60.460117 76 76.203369 60.256744 76.203369 40.836487 Z"/>
    <path id="-" fill="#dfdfdf" fill-rule="evenodd" stroke="none" d="M 76.203369 124.836487 C 76.203369 105.416199 60.460117 89.672943 41.039841 89.672943 C 21.61956 89.672943 5.876314 105.416199 5.876314 124.836487 C 5.876314 144.256744 21.61956 160 41.039841 160 C 60.460117 160 76.203369 144.256744 76.203369 124.836487 Z"/>
    <path id="--2" fill="#dfdfdf" fill-rule="evenodd" stroke="none" d="M 76.203369 207.836487 C 76.203369 188.416199 60.460117 172.672943 41.039841 172.672943 C 21.61956 172.672943 5.876314 188.416199 5.876314 207.836487 C 5.876314 227.256744 21.61956 243 41.039841 243 C 60.460117 243 76.203369 227.256744 76.203369 207.836487 Z"/>
    <path id="--3" fill="#dfdfdf" fill-rule="evenodd" stroke="none" d="M 76.203369 291.836487 C 76.203369 272.416199 60.460117 256.672943 41.039841 256.672943 C 21.61956 256.672943 5.876314 272.416199 5.876314 291.836487 C 5.876314 311.256775 21.61956 327 41.039841 327 C 60.460117 327 76.203369 311.256775 76.203369 291.836487 Z"/>
    <path id="--4" fill="#dfdfdf" fill-rule="evenodd" stroke="none" d="M 76.203369 374.836487 C 76.203369 355.416199 60.460117 339.672943 41.039841 339.672943 C 21.61956 339.672943 5.876314 355.416199 5.876314 374.836487 C 5.876314 394.256744 21.61956 410 41.039841 410 C 60.460117 410 76.203369 394.256744 76.203369 374.836487 Z"/>
    <path id="--5" fill="#dfdfdf" fill-rule="evenodd" stroke="none" d="M 76.203369 455.836487 C 76.203369 436.416199 60.460117 420.672943 41.039841 420.672943 C 21.61956 420.672943 5.876314 436.416199 5.876314 455.836487 C 5.876314 475.256744 21.61956 491 41.039841 491 C 60.460117 491 76.203369 475.256744 76.203369 455.836487 Z"/>
    <path id="--11" fill="#dfdfdf" fill-rule="evenodd" stroke="none" d="M 161.203369 40.836487 C 161.203369 21.416199 145.460114 5.672943 126.039841 5.672943 C 106.61956 5.672943 90.876312 21.416199 90.876312 40.836487 C 90.876312 60.256744 106.61956 76 126.039841 76 C 145.460114 76 161.203369 60.256744 161.203369 40.836487 Z"/>
    <path id="--10" fill="#dfdfdf" fill-rule="evenodd" stroke="none" d="M 161.203369 124.836487 C 161.203369 105.416199 145.460114 89.672943 126.039841 89.672943 C 106.61956 89.672943 90.876312 105.416199 90.876312 124.836487 C 90.876312 144.256744 106.61956 160 126.039841 160 C 145.460114 160 161.203369 144.256744 161.203369 124.836487 Z"/>
    <path id="--9" fill="#dfdfdf" fill-rule="evenodd" stroke="none" d="M 161.203369 207.836487 C 161.203369 188.416199 145.460114 172.672943 126.039841 172.672943 C 106.61956 172.672943 90.876312 188.416199 90.876312 207.836487 C 90.876312 227.256744 106.61956 243 126.039841 243 C 145.460114 243 161.203369 227.256744 161.203369 207.836487 Z"/>
    <path id="--8" fill="#dfdfdf" fill-rule="evenodd" stroke="none" d="M 161.203369 291.836487 C 161.203369 272.416199 145.460114 256.672943 126.039841 256.672943 C 106.61956 256.672943 90.876312 272.416199 90.876312 291.836487 C 90.876312 311.256775 106.61956 327 126.039841 327 C 145.460114 327 161.203369 311.256775 161.203369 291.836487 Z"/>
    <path id="--7" fill="#dfdfdf" fill-rule="evenodd" stroke="none" d="M 161.203369 374.836487 C 161.203369 355.416199 145.460114 339.672943 126.039841 339.672943 C 106.61956 339.672943 90.876312 355.416199 90.876312 374.836487 C 90.876312 394.256744 106.61956 410 126.039841 410 C 145.460114 410 161.203369 394.256744 161.203369 374.836487 Z"/>
    <path id="--6" fill="#dfdfdf" fill-rule="evenodd" stroke="none" d="M 161.203369 455.836487 C 161.203369 436.416199 145.460114 420.672943 126.039841 420.672943 C 106.61956 420.672943 90.876312 436.416199 90.876312 455.836487 C 90.876312 475.256744 106.61956 491 126.039841 491 C 145.460114 491 161.203369 475.256744 161.203369 455.836487 Z"/>
    <path id="--17" fill="#dfdfdf" fill-rule="evenodd" stroke="none" d="M 242.203369 40.836487 C 242.203369 21.416199 226.460114 5.672943 207.039841 5.672943 C 187.619568 5.672943 171.876312 21.416199 171.876312 40.836487 C 171.876312 60.256744 187.619568 76 207.039841 76 C 226.460114 76 242.203369 60.256744 242.203369 40.836487 Z"/>
    <path id="--16" fill="#dfdfdf" fill-rule="evenodd" stroke="none" d="M 242.203369 124.836487 C 242.203369 105.416199 226.460114 89.672943 207.039841 89.672943 C 187.619568 89.672943 171.876312 105.416199 171.876312 124.836487 C 171.876312 144.256744 187.619568 160 207.039841 160 C 226.460114 160 242.203369 144.256744 242.203369 124.836487 Z"/>
    <path id="--15" fill="#dfdfdf" fill-rule="evenodd" stroke="none" d="M 242.203369 207.836487 C 242.203369 188.416199 226.460114 172.672943 207.039841 172.672943 C 187.619568 172.672943 171.876312 188.416199 171.876312 207.836487 C 171.876312 227.256744 187.619568 243 207.039841 243 C 226.460114 243 242.203369 227.256744 242.203369 207.836487 Z"/>
    <path id="--14" fill="#dfdfdf" fill-rule="evenodd" stroke="none" d="M 242.203369 291.836487 C 242.203369 272.416199 226.460114 256.672943 207.039841 256.672943 C 187.619568 256.672943 171.876312 272.416199 171.876312 291.836487 C 171.876312 311.256775 187.619568 327 207.039841 327 C 226.460114 327 242.203369 311.256775 242.203369 291.836487 Z"/>
    <path id="--13" fill="#dfdfdf" fill-rule="evenodd" stroke="none" d="M 242.203369 374.836487 C 242.203369 355.416199 226.460114 339.672943 207.039841 339.672943 C 187.619568 339.672943 171.876312 355.416199 171.876312 374.836487 C 171.876312 394.256744 187.619568 410 207.039841 410 C 226.460114 410 242.203369 394.256744 242.203369 374.836487 Z"/>
    <path id="--12" fill="#dfdfdf" fill-rule="evenodd" stroke="none" d="M 242.203369 455.836487 C 242.203369 436.416199 226.460114 420.672943 207.039841 420.672943 C 187.619568 420.672943 171.876312 436.416199 171.876312 455.836487 C 171.876312 475.256744 187.619568 491 207.039841 491 C 226.460114 491 242.203369 475.256744 242.203369 455.836487 Z"/>
    <path id="--23" fill="#dfdfdf" fill-rule="evenodd" stroke="none" d="M 328.203369 40.836487 C 328.203369 21.416199 312.460114 5.672943 293.039856 5.672943 C 273.619568 5.672943 257.876312 21.416199 257.876312 40.836487 C 257.876312 60.256744 273.619568 76 293.039856 76 C 312.460114 76 328.203369 60.256744 328.203369 40.836487 Z"/>
    <path id="--22" fill="#dfdfdf" fill-rule="evenodd" stroke="none" d="M 328.203369 124.836487 C 328.203369 105.416199 312.460114 89.672943 293.039856 89.672943 C 273.619568 89.672943 257.876312 105.416199 257.876312 124.836487 C 257.876312 144.256744 273.619568 160 293.039856 160 C 312.460114 160 328.203369 144.256744 328.203369 124.836487 Z"/>
    <path id="--21" fill="#dfdfdf" fill-rule="evenodd" stroke="none" d="M 328.203369 207.836487 C 328.203369 188.416199 312.460114 172.672943 293.039856 172.672943 C 273.619568 172.672943 257.876312 188.416199 257.876312 207.836487 C 257.876312 227.256744 273.619568 243 293.039856 243 C 312.460114 243 328.203369 227.256744 328.203369 207.836487 Z"/>
    <path id="--20" fill="#dfdfdf" fill-rule="evenodd" stroke="none" d="M 328.203369 291.836487 C 328.203369 272.416199 312.460114 256.672943 293.039856 256.672943 C 273.619568 256.672943 257.876312 272.416199 257.876312 291.836487 C 257.876312 311.256775 273.619568 327 293.039856 327 C 312.460114 327 328.203369 311.256775 328.203369 291.836487 Z"/>
    <path id="--19" fill="#dfdfdf" fill-rule="evenodd" stroke="none" d="M 328.203369 374.836487 C 328.203369 355.416199 312.460114 339.672943 293.039856 339.672943 C 273.619568 339.672943 257.876312 355.416199 257.876312 374.836487 C 257.876312 394.256744 273.619568 410 293.039856 410 C 312.460114 410 328.203369 394.256744 328.203369 374.836487 Z"/>
    <path id="--18" fill="#dfdfdf" fill-rule="evenodd" stroke="none" d="M 328.203369 455.836487 C 328.203369 436.416199 312.460114 420.672943 293.039856 420.672943 C 273.619568 420.672943 257.876312 436.416199 257.876312 455.836487 C 257.876312 475.256744 273.619568 491 293.039856 491 C 312.460114 491 328.203369 475.256744 328.203369 455.836487 Z"/>
    <path id="--29" fill="#dfdfdf" fill-rule="evenodd" stroke="none" d="M 409.203369 40.836487 C 409.203369 21.416199 393.460114 5.672943 374.039856 5.672943 C 354.619568 5.672943 338.876312 21.416199 338.876312 40.836487 C 338.876312 60.256744 354.619568 76 374.039856 76 C 393.460114 76 409.203369 60.256744 409.203369 40.836487 Z"/>
    <path id="--28" fill="#dfdfdf" fill-rule="evenodd" stroke="none" d="M 409.203369 124.836487 C 409.203369 105.416199 393.460114 89.672943 374.039856 89.672943 C 354.619568 89.672943 338.876312 105.416199 338.876312 124.836487 C 338.876312 144.256744 354.619568 160 374.039856 160 C 393.460114 160 409.203369 144.256744 409.203369 124.836487 Z"/>
    <path id="--27" fill="#dfdfdf" fill-rule="evenodd" stroke="none" d="M 409.203369 207.836487 C 409.203369 188.416199 393.460114 172.672943 374.039856 172.672943 C 354.619568 172.672943 338.876312 188.416199 338.876312 207.836487 C 338.876312 227.256744 354.619568 243 374.039856 243 C 393.460114 243 409.203369 227.256744 409.203369 207.836487 Z"/>
    <path id="--26" fill="#dfdfdf" fill-rule="evenodd" stroke="none" d="M 409.203369 291.836487 C 409.203369 272.416199 393.460114 256.672943 374.039856 256.672943 C 354.619568 256.672943 338.876312 272.416199 338.876312 291.836487 C 338.876312 311.256775 354.619568 327 374.039856 327 C 393.460114 327 409.203369 311.256775 409.203369 291.836487 Z"/>
    <path id="--25" fill="#dfdfdf" fill-rule="evenodd" stroke="none" d="M 409.203369 374.836487 C 409.203369 355.416199 393.460114 339.672943 374.039856 339.672943 C 354.619568 339.672943 338.876312 355.416199 338.876312 374.836487 C 338.876312 394.256744 354.619568 410 374.039856 410 C 393.460114 410 409.203369 394.256744 409.203369 374.836487 Z"/>
    <path id="--24" fill="#dfdfdf" fill-rule="evenodd" stroke="none" d="M 409.203369 455.836487 C 409.203369 436.416199 393.460114 420.672943 374.039856 420.672943 C 354.619568 420.672943 338.876312 436.416199 338.876312 455.836487 C 338.876312 475.256744 354.619568 491 374.039856 491 C 393.460114 491 409.203369 475.256744 409.203369 455.836487 Z"/>
    <path id="--35" fill="#dfdfdf" fill-rule="evenodd" stroke="none" d="M 493.203369 40.836487 C 493.203369 21.416199 477.460114 5.672943 458.039856 5.672943 C 438.619568 5.672943 422.876312 21.416199 422.876312 40.836487 C 422.876312 60.256744 438.619568 76 458.039856 76 C 477.460114 76 493.203369 60.256744 493.203369 40.836487 Z"/>
    <path id="--34" fill="#dfdfdf" fill-rule="evenodd" stroke="none" d="M 493.203369 124.836487 C 493.203369 105.416199 477.460114 89.672943 458.039856 89.672943 C 438.619568 89.672943 422.876312 105.416199 422.876312 124.836487 C 422.876312 144.256744 438.619568 160 458.039856 160 C 477.460114 160 493.203369 144.256744 493.203369 124.836487 Z"/>
    <path id="--33" fill="#dfdfdf" fill-rule="evenodd" stroke="none" d="M 493.203369 207.836487 C 493.203369 188.416199 477.460114 172.672943 458.039856 172.672943 C 438.619568 172.672943 422.876312 188.416199 422.876312 207.836487 C 422.876312 227.256744 438.619568 243 458.039856 243 C 477.460114 243 493.203369 227.256744 493.203369 207.836487 Z"/>
    <path id="--32" fill="#dfdfdf" fill-rule="evenodd" stroke="none" d="M 493.203369 291.836487 C 493.203369 272.416199 477.460114 256.672943 458.039856 256.672943 C 438.619568 256.672943 422.876312 272.416199 422.876312 291.836487 C 422.876312 311.256775 438.619568 327 458.039856 327 C 477.460114 327 493.203369 311.256775 493.203369 291.836487 Z"/>
    <path id="--31" fill="#dfdfdf" fill-rule="evenodd" stroke="none" d="M 493.203369 374.836487 C 493.203369 355.416199 477.460114 339.672943 458.039856 339.672943 C 438.619568 339.672943 422.876312 355.416199 422.876312 374.836487 C 422.876312 394.256744 438.619568 410 458.039856 410 C 477.460114 410 493.203369 394.256744 493.203369 374.836487 Z"/>
    <path id="--30" fill="#dfdfdf" fill-rule="evenodd" stroke="none" d="M 493.203369 455.836487 C 493.203369 436.416199 477.460114 420.672943 458.039856 420.672943 C 438.619568 420.672943 422.876312 436.416199 422.876312 455.836487 C 422.876312 475.256744 438.619568 491 458.039856 491 C 477.460114 491 493.203369 475.256744 493.203369 455.836487 Z"/>
</svg>
