<?xml version="1.0" encoding="UTF-8"?>
<!-- Generated by Pixelmator Pro 2.4.7 -->
<svg width="500" height="500" viewBox="0 0 500 500" xmlns="http://www.w3.org/2000/svg" xmlns:xlink="http://www.w3.org/1999/xlink">
    <path id="searchimageoutline-svgrepo-com" fill="#efefef" fill-rule="evenodd" stroke="none" d="M 212.750015 37.93335 L 287.25 37.93335 C 307.100037 37.93335 314.175018 39.05835 321.875031 41.533325 C 329.574982 44.033356 336.225006 47.858337 342.25 53.258362 C 348.25 58.633331 352.825043 64.208344 362.825012 81.333374 L 381.25 112.93335 L 419.875 112.93335 C 447.725037 112.93335 457.849976 115.833374 468.025024 121.283356 C 478.200012 126.733368 486.200012 134.733337 491.650024 144.908325 C 497.100006 155.083344 500 165.18335 500 193.05835 L 500 387.358337 C 500 456.608337 414.149994 488.858368 368.550049 436.758331 L 294.75 352.383362 C 249.719238 374.921875 194.95401 360.460815 166.920593 318.629211 C 138.887161 276.797607 146.331757 220.646637 184.297272 187.565247 C 222.262802 154.483917 278.904266 154.793274 316.506134 188.287415 C 354.108002 221.781525 360.938751 278.010498 332.450012 319.533356 L 406.200012 403.833344 C 421.375 421.208344 450.000031 410.458313 450.000031 387.358337 L 450.000031 193.05835 C 450.000031 182.383362 449.525055 175.708344 448.774994 171.833344 C 448.598938 170.644928 448.182098 169.505005 447.550018 168.483337 C 446.88266 167.139374 445.793945 166.05069 444.450012 165.383362 C 443.428375 164.751221 442.288391 164.334381 441.100006 164.158325 C 437.225037 163.408325 430.550018 162.93335 419.875 162.93335 L 381.25 162.93335 C 363.46402 162.938629 347.01413 153.495148 338.050018 138.133331 L 319.625031 106.533356 C 312.750031 94.733337 310.975037 92.358337 308.875 90.483337 C 308.215271 89.846069 307.407867 89.382233 306.525024 89.133331 C 303.850037 88.258331 300.900024 87.93335 287.275024 87.93335 L 212.750015 87.93335 C 199.100006 87.93335 196.149994 88.258331 193.475006 89.133331 C 192.592133 89.382233 191.784729 89.846069 191.125 90.483337 C 189.024994 92.358337 187.249985 94.733337 180.375015 106.533356 L 161.949982 138.133331 C 152.98587 153.495148 136.535995 162.938629 118.750008 162.93335 L 80.125008 162.93335 C 69.449997 162.93335 62.775005 163.408325 58.900002 164.158325 C 57.71159 164.334381 56.571644 164.751221 55.550007 165.383362 C 54.20607 166.05069 53.117348 167.139374 52.450008 168.483337 C 51.817894 169.505005 51.401054 170.644928 51.224998 171.833344 C 50.47501 175.708344 50 182.383362 50 193.05835 L 50 382.80835 C 50 393.483337 50.47501 400.158356 51.224998 404.033325 C 51.525005 405.533356 51.649998 405.883362 52.450008 407.383362 C 53.11293 408.736603 54.202122 409.834595 55.550007 410.508362 C 57.050007 411.283356 57.375008 411.408325 58.900002 411.708344 C 62.775005 412.458374 69.449997 412.93335 80.125008 412.93335 L 250.000015 412.93335 C 263.807159 412.93335 275.000031 424.126251 275.000031 437.93335 C 275.000031 451.740479 263.807159 462.93335 250.000015 462.93335 L 80.125008 462.93335 C 52.250011 462.93335 42.150005 460.033356 31.975004 454.583374 C 21.909605 449.254944 13.678425 441.023743 8.350004 430.958374 C 2.900002 420.783325 0 410.68335 0 382.80835 L 0 193.05835 C 0 165.18335 2.900002 155.083344 8.350004 144.908325 C 13.800001 134.733337 21.799999 126.733368 31.975004 121.283356 C 42.150005 115.833374 52.250011 112.93335 80.125008 112.93335 L 118.750008 112.93335 L 137.175003 81.333374 C 147.175003 64.208344 151.725006 58.633331 157.75 53.258362 C 163.75 47.858337 170.425018 44.008331 178.125 41.533325 C 185.824997 39.05835 192.899979 37.93335 212.750015 37.93335 Z M 300 262.93335 C 300 290.547577 277.614227 312.93335 250.000015 312.93335 C 222.385788 312.93335 200.000015 290.547577 200.000015 262.93335 C 200.000015 235.319122 222.385788 212.93335 250.000015 212.93335 C 277.614227 212.93335 300 235.319122 300 262.93335 Z"/>
</svg>
